<svg width="13" height="13" viewBox="0 0 13 13" fill="none" xmlns="http://www.w3.org/2000/svg">
<path d="M11.7969 11.0282L8.17383 7.40514C8.73605 6.6783 9.04018 5.78963 9.04018 4.85492C9.04018 3.73606 8.60352 2.68694 7.81389 1.89593C7.02427 1.10492 5.97237 0.669647 4.85491 0.669647C3.73744 0.669647 2.68554 1.10631 1.89593 1.89593C1.10491 2.68555 0.66964 3.73606 0.66964 4.85492C0.66964 5.97238 1.1063 7.02428 1.89593 7.8139C2.68554 8.60492 3.73605 9.04018 4.85491 9.04018C5.78962 9.04018 6.6769 8.73606 7.40374 8.17523L11.0268 11.7969C11.0374 11.8075 11.05 11.8159 11.0639 11.8217C11.0778 11.8274 11.0927 11.8305 11.1077 11.8305C11.1228 11.8305 11.1376 11.8274 11.1515 11.8217C11.1654 11.8159 11.178 11.8075 11.1886 11.7969L11.7969 11.19C11.8075 11.1794 11.8159 11.1668 11.8217 11.1529C11.8274 11.139 11.8304 11.1241 11.8304 11.1091C11.8304 11.0941 11.8274 11.0792 11.8217 11.0653C11.8159 11.0514 11.8075 11.0388 11.7969 11.0282ZM7.06473 7.06474C6.47321 7.65486 5.68917 7.97992 4.85491 7.97992C4.02064 7.97992 3.2366 7.65486 2.64509 7.06474C2.05496 6.47322 1.72991 5.68917 1.72991 4.85492C1.72991 4.02065 2.05496 3.23522 2.64509 2.64509C3.2366 2.05497 4.02064 1.72992 4.85491 1.72992C5.68917 1.72992 6.4746 2.05358 7.06473 2.64509C7.65485 3.23661 7.97991 4.02065 7.97991 4.85492C7.97991 5.68917 7.65485 6.47461 7.06473 7.06474Z" fill="#8C8C8C"/>
</svg>
